<?xml version="1.0" encoding="UTF-8" standalone="no"?>
<svg
   xmlns:dc="http://purl.org/dc/elements/1.1/"
   xmlns:cc="http://creativecommons.org/ns#"
   xmlns:rdf="http://www.w3.org/1999/02/22-rdf-syntax-ns#"
   xmlns:svg="http://www.w3.org/2000/svg"
   xmlns="http://www.w3.org/2000/svg"
   xmlns:sodipodi="http://sodipodi.sourceforge.net/DTD/sodipodi-0.dtd"
   xmlns:inkscape="http://www.inkscape.org/namespaces/inkscape"
   width="800"
   height="800"
   viewBox="0 0 211.66667 211.66667"
   version="1.1"
   id="svg8"
   inkscape:version="1.0.1 (3bc2e813f5, 2020-09-07)"
   sodipodi:docname="three.svg">
  <defs
     id="defs2">
    <inkscape:path-effect
       effect="offset"
       id="path-effect1142"
       is_visible="true"
       lpeversion="1"
       linejoin_type="miter"
       unit="px"
       offset="-10"
       miter_limit="4"
       attempt_force_join="true"
       update_on_knot_move="true" />
    <inkscape:path-effect
       effect="fillet_chamfer"
       id="path-effect1140"
       is_visible="true"
       lpeversion="1"
       satellites_param="F,0,0,1,0,16,0,1 @ F,0,0,1,0,16,0,1 @ F,0,0,1,0,16,0,1 @ F,0,0,1,0,16,0,1 @ F,0,0,1,0,16,0,1 @ F,0,0,1,0,16,0,1 @ F,0,0,1,0,16,0,1 @ F,0,0,1,0,16,0,1 @ F,0,0,1,0,16,0,1 @ F,0,0,1,0,16,0,1 @ F,0,0,1,0,16,0,1 @ F,0,0,1,0,16,0,1 @ F,0,0,1,0,16,0,1 @ F,0,0,1,0,16,0,1 @ F,0,0,1,0,16,0,1 @ F,0,0,1,0,16,0,1 @ F,0,0,1,0,16,0,1 @ F,0,0,1,0,16,0,1 @ F,0,0,1,0,16,0,1 @ F,0,0,1,0,16,0,1 @ F,0,0,1,0,16,0,1 @ F,0,0,1,0,16,0,1 @ F,0,0,1,0,16,0,1 @ F,0,0,1,0,16,0,1 @ F,0,0,1,0,16,0,1 @ F,0,0,1,0,16,0,1 @ F,0,0,1,0,16,0,1 @ F,0,0,1,0,16,0,1 @ F,0,0,1,0,16,0,1 @ F,0,0,1,0,16,0,1"
       unit="px"
       method="auto"
       mode="F"
       radius="16"
       chamfer_steps="1"
       flexible="false"
       use_knot_distance="true"
       apply_no_radius="true"
       apply_with_radius="true"
       only_selected="false"
       hide_knots="false" />
    <inkscape:path-effect
       effect="fillet_chamfer"
       id="path-effect1136"
       is_visible="true"
       lpeversion="1"
       satellites_param="F,0,0,1,0,16,0,1 @ F,0,0,1,0,16,0,1 @ F,0,0,1,0,16,0,1 @ F,0,0,1,0,16,0,1 @ F,0,0,1,0,16,0,1 @ F,0,0,1,0,16,0,1 @ F,0,0,1,0,16,0,1 @ F,0,0,1,0,16,0,1 @ F,0,0,1,0,16,0,1 @ F,0,0,1,0,16,0,1 @ F,0,0,1,0,16,0,1 @ F,0,0,1,0,16,0,1 @ F,0,0,1,0,16,0,1 @ F,0,0,1,0,16,0,1 @ F,0,0,1,0,16,0,1 @ F,0,0,1,0,16,0,1 @ F,0,0,1,0,16,0,1 @ F,0,0,1,0,16,0,1 @ F,0,0,1,0,16,0,1 @ F,0,0,1,0,16,0,1 @ F,0,0,1,0,16,0,1 @ F,0,0,1,0,16,0,1 @ F,0,0,1,0,16,0,1 @ F,0,0,1,0,16,0,1 @ F,0,0,1,0,16,0,1 @ F,0,0,1,0,16,0,1 @ F,0,0,1,0,16,0,1 @ F,0,0,1,0,16,0,1 @ F,0,0,1,0,16,0,1 @ F,0,0,1,0,16,0,1"
       unit="px"
       method="auto"
       mode="F"
       radius="16"
       chamfer_steps="1"
       flexible="false"
       use_knot_distance="true"
       apply_no_radius="true"
       apply_with_radius="true"
       only_selected="false"
       hide_knots="false" />
    <inkscape:path-effect
       effect="offset"
       id="path-effect1077"
       is_visible="true"
       lpeversion="1"
       linejoin_type="miter"
       unit="px"
       offset="-10"
       miter_limit="4"
       attempt_force_join="true"
       update_on_knot_move="true" />
    <inkscape:path-effect
       effect="fillet_chamfer"
       id="path-effect1075"
       is_visible="true"
       lpeversion="1"
       satellites_param="F,0,0,1,0,46.714285,0,1 @ F,0,0,1,0,16,0,1 @ F,0,0,1,0,16,0,1 @ F,0,0,1,0,16,0,1 @ F,0,0,1,0,16,0,1 @ F,0,0,1,0,16,0,1 @ F,0,0,1,0,16,0,1 @ F,0,0,1,0,16,0,1 @ F,0,0,1,0,16,0,1 @ F,0,0,1,0,16,0,1 @ F,0,0,1,0,16,0,1 @ F,0,0,1,0,16,0,1 @ F,0,0,1,0,16,0,1 @ F,0,0,1,0,16,0,1 @ F,0,0,1,0,43.857143,0,1 @ F,0,0,1,0,16,0,1 @ F,0,0,1,0,16,0,1 @ F,0,0,1,0,46.714285,0,1"
       unit="px"
       method="auto"
       mode="F"
       radius="16"
       chamfer_steps="1"
       flexible="false"
       use_knot_distance="true"
       apply_no_radius="true"
       apply_with_radius="true"
       only_selected="false"
       hide_knots="false" />
    <inkscape:path-effect
       effect="offset"
       id="path-effect1071"
       is_visible="true"
       lpeversion="1"
       linejoin_type="miter"
       unit="px"
       offset="-10"
       miter_limit="4"
       attempt_force_join="true"
       update_on_knot_move="true" />
    <inkscape:path-effect
       effect="fillet_chamfer"
       id="path-effect1069"
       is_visible="true"
       lpeversion="1"
       satellites_param="F,0,0,1,0,46.714285,0,1 @ F,0,0,1,0,16,0,1 @ F,0,0,1,0,16,0,1 @ F,0,0,1,0,16,0,1 @ F,0,0,1,0,16,0,1 @ F,0,0,1,0,16,0,1 @ F,0,0,1,0,16,0,1 @ F,0,0,1,0,16,0,1 @ F,0,0,1,0,16,0,1 @ F,0,0,1,0,16,0,1 @ F,0,0,1,0,16,0,1 @ F,0,0,1,0,16,0,1 @ F,0,0,1,0,16,0,1 @ F,0,0,1,0,16,0,1 @ F,0,0,1,0,43.857143,0,1 @ F,0,0,1,0,16,0,1 @ F,0,0,1,0,16,0,1 @ F,0,0,1,0,46.714285,0,1"
       unit="px"
       method="auto"
       mode="F"
       radius="16"
       chamfer_steps="1"
       flexible="false"
       use_knot_distance="true"
       apply_no_radius="true"
       apply_with_radius="true"
       only_selected="false"
       hide_knots="false" />
    <inkscape:path-effect
       effect="offset"
       id="path-effect1065"
       is_visible="true"
       lpeversion="1"
       linejoin_type="miter"
       unit="px"
       offset="-10"
       miter_limit="4"
       attempt_force_join="true"
       update_on_knot_move="true" />
    <inkscape:path-effect
       effect="fillet_chamfer"
       id="path-effect1063"
       is_visible="true"
       lpeversion="1"
       satellites_param="F,0,0,1,0,16,0,1 @ F,0,0,1,0,16,0,1 @ F,0,0,1,0,16,0,1 @ F,0,0,1,0,16,0,1 @ F,0,0,1,0,16,0,1 @ F,0,0,1,0,16,0,1 @ F,0,0,1,0,16,0,1 @ F,0,0,1,0,16,0,1 @ F,0,0,1,0,16,0,1 @ F,0,0,1,0,16,0,1 @ F,0,0,1,0,16,0,1 @ F,0,0,1,0,16,0,1 @ F,0,0,1,0,16,0,1 @ F,0,0,1,0,16,0,1 @ F,0,0,1,0,16,0,1 @ F,0,0,1,0,16,0,1 @ F,0,0,1,0,16,0,1 @ F,0,0,1,0,16,0,1"
       unit="px"
       method="auto"
       mode="F"
       radius="16"
       chamfer_steps="1"
       flexible="false"
       use_knot_distance="true"
       apply_no_radius="true"
       apply_with_radius="true"
       only_selected="false"
       hide_knots="false" />
    <inkscape:path-effect
       effect="fillet_chamfer"
       id="path-effect1059"
       is_visible="true"
       lpeversion="1"
       satellites_param="F,0,0,1,0,46.714285,0,1 @ F,0,0,1,0,16,0,1 @ F,0,0,1,0,16,0,1 @ F,0,0,1,0,16,0,1 @ F,0,0,1,0,16,0,1 @ F,0,0,1,0,16,0,1 @ F,0,0,1,0,16,0,1 @ F,0,0,1,0,16,0,1 @ F,0,0,1,0,16,0,1 @ F,0,0,1,0,16,0,1 @ F,0,0,1,0,16,0,1 @ F,0,0,1,0,16,0,1 @ F,0,0,1,0,16,0,1 @ F,0,0,1,0,16,0,1 @ F,0,0,1,0,43.857143,0,1 @ F,0,0,1,0,16,0,1 @ F,0,0,1,0,16,0,1 @ F,0,0,1,0,46.714285,0,1"
       unit="px"
       method="auto"
       mode="F"
       radius="16"
       chamfer_steps="1"
       flexible="false"
       use_knot_distance="true"
       apply_no_radius="true"
       apply_with_radius="true"
       only_selected="false"
       hide_knots="false" />
    <inkscape:path-effect
       effect="copy_rotate"
       starting_point="0,0"
       origin="43.297665,38.575843"
       id="path-effect963"
       is_visible="true"
       lpeversion="1"
       method="normal"
       num_copies="6"
       starting_angle="0"
       rotation_angle="60"
       gap="-0.01"
       copies_to_360="true"
       mirror_copies="false"
       split_items="false" />
    <inkscape:path-effect
       effect="fillet_chamfer"
       id="path-effect954"
       is_visible="true"
       lpeversion="1"
       satellites_param="F,0,0,1,0,5,0,1 @ F,0,0,1,0,5,0,1 @ F,0,0,1,0,5,0,1 @ F,0,0,1,0,5,0,1 @ F,0,0,1,0,5,0,1 @ F,0,0,1,0,5,0,1 @ F,0,0,1,0,5,0,1"
       unit="px"
       method="auto"
       mode="F"
       radius="5"
       chamfer_steps="1"
       flexible="false"
       use_knot_distance="true"
       apply_no_radius="true"
       apply_with_radius="true"
       only_selected="false"
       hide_knots="false" />
    <inkscape:path-effect
       effect="fillet_chamfer"
       id="path-effect952"
       is_visible="true"
       lpeversion="1"
       satellites_param="F,0,0,1,0,5,0,1 @ F,0,0,1,0,5,0,1 @ F,0,0,1,0,5,0,1 @ F,0,0,1,0,5,0,1 @ F,0,0,1,0,5,0,1 @ F,0,0,1,0,5,0,1 @ F,0,0,1,0,5,0,1"
       unit="px"
       method="auto"
       mode="F"
       radius="5"
       chamfer_steps="1"
       flexible="false"
       use_knot_distance="true"
       apply_no_radius="true"
       apply_with_radius="true"
       only_selected="false"
       hide_knots="false" />
    <inkscape:path-effect
       effect="offset"
       id="path-effect950"
       is_visible="true"
       lpeversion="1"
       linejoin_type="miter"
       unit="px"
       offset="8"
       miter_limit="4"
       attempt_force_join="true"
       update_on_knot_move="true" />
    <inkscape:path-effect
       effect="offset"
       id="path-effect877"
       is_visible="true"
       lpeversion="1"
       linejoin_type="miter"
       unit="mm"
       offset="-10"
       miter_limit="4"
       attempt_force_join="true"
       update_on_knot_move="true" />
    <inkscape:path-effect
       effect="fillet_chamfer"
       id="path-effect875"
       is_visible="true"
       lpeversion="1"
       satellites_param="F,0,0,1,0,16,0,1 @ F,0,0,1,0,16,0,1 @ F,0,0,1,0,16,0,1 @ F,0,0,1,0,16,0,1"
       unit="px"
       method="auto"
       mode="F"
       radius="16"
       chamfer_steps="1"
       flexible="false"
       use_knot_distance="true"
       apply_no_radius="true"
       apply_with_radius="true"
       only_selected="false"
       hide_knots="false" />
    <inkscape:path-effect
       effect="offset"
       id="path-effect856"
       is_visible="true"
       lpeversion="1"
       linejoin_type="miter"
       unit="px"
       offset="-20"
       miter_limit="4"
       attempt_force_join="true"
       update_on_knot_move="true" />
    <inkscape:path-effect
       effect="fillet_chamfer"
       id="path-effect854"
       is_visible="true"
       lpeversion="1"
       satellites_param="F,0,0,1,0,16,0,1 @ F,0,0,1,0,16,0,1 @ F,0,0,1,0,16,0,1 @ F,0,0,1,0,16,0,1"
       unit="px"
       method="auto"
       mode="F"
       radius="16"
       chamfer_steps="1"
       flexible="false"
       use_knot_distance="true"
       apply_no_radius="true"
       apply_with_radius="true"
       only_selected="false"
       hide_knots="false" />
    <inkscape:path-effect
       effect="fillet_chamfer"
       id="path-effect12"
       is_visible="true"
       lpeversion="1"
       satellites_param="F,0,0,1,0,16,0,1 @ F,0,0,1,0,16,0,1 @ F,0,0,1,0,16,0,1 @ F,0,0,1,0,16,0,1"
       unit="px"
       method="auto"
       mode="F"
       radius="16"
       chamfer_steps="1"
       flexible="false"
       use_knot_distance="true"
       apply_no_radius="true"
       apply_with_radius="true"
       only_selected="false"
       hide_knots="false" />
  </defs>
  <sodipodi:namedview
     id="base"
     pagecolor="#000000"
     bordercolor="#666666"
     borderopacity="1.0"
     inkscape:pageopacity="0"
     inkscape:pageshadow="2"
     inkscape:zoom="1"
     inkscape:cx="283.69835"
     inkscape:cy="374.07317"
     inkscape:document-units="px"
     inkscape:current-layer="layer1"
     inkscape:document-rotation="0"
     showgrid="false"
     units="px"
     showguides="true"
     inkscape:guide-bbox="true"
     inkscape:window-width="1920"
     inkscape:window-height="1017"
     inkscape:window-x="-8"
     inkscape:window-y="-8"
     inkscape:window-maximized="1">
    <sodipodi:guide
       position="105.57147,160.88546"
       orientation="1,0"
       id="guide932" />
    <sodipodi:guide
       position="105.57147,105.82794"
       orientation="0,-1"
       id="guide934" />
    <sodipodi:guide
       position="163.03441,137.90028"
       orientation="1,0"
       id="guide989" />
    <sodipodi:guide
       position="50.081846,156.86012"
       orientation="1,0"
       id="guide1031" />
  </sodipodi:namedview>
  <metadata
     id="metadata5">
    <rdf:RDF>
      <cc:Work
         rdf:about="">
        <dc:format>image/svg+xml</dc:format>
        <dc:type
           rdf:resource="http://purl.org/dc/dcmitype/StillImage" />
        <dc:title />
      </cc:Work>
    </rdf:RDF>
  </metadata>
  <g
     inkscape:label="bg"
     inkscape:groupmode="layer"
     id="layer1">
    <g
       id="g883">
      <path
         style="fill:#1c1d2b;fill-opacity:1;fill-rule:evenodd;stroke-width:0.264583"
         id="rect10"
         width="211.66667"
         height="211.66667"
         x="0"
         y="-2.220446e-16"
         inkscape:path-effect="#path-effect12"
         d="m 16,0 h 179.66667 a 16,16 45 0 1 16,16 v 179.66667 a 16,16 135 0 1 -16,16 H 16 a 16,16 45 0 1 -16,-16 V 16 A 16,16 135 0 1 16,0 Z"
         sodipodi:type="rect" />
      <path
         style="fill:#5b6985;fill-opacity:1;fill-rule:evenodd;stroke-width:0.264583"
         id="rect10-6"
         width="211.66667"
         height="211.66667"
         x="7.1054274e-15"
         y="0"
         inkscape:path-effect="#path-effect854;#path-effect856"
         sodipodi:type="rect"
         d="M 20,20 V 191.66602 H 191.66602 V 20 Z" />
      <path
         style="fill:#8faec6;fill-opacity:1;fill-rule:evenodd;stroke-width:0.264583"
         id="rect10-3"
         width="211.66667"
         height="211.66667"
         x="0"
         y="-1.4210855e-14"
         inkscape:path-effect="#path-effect875;#path-effect877"
         sodipodi:type="rect"
         d="m 16,10 c -3.263267,0 -6,2.736733 -6,6 v 179.66602 c 0,3.26325 2.736737,6 6,6 h 179.66602 c 3.26325,0 6,-2.73675 6,-6 V 16 c 0,-3.263263 -2.73675,-6 -6,-6 z" />
    </g>
  </g>
  <g
     inkscape:groupmode="layer"
     id="layer3"
     inkscape:label="three">
    <path
       id="three_bottom"
       style="fill:#1c1d2b;fill-opacity:1;stroke-width:1.06557"
       d="m 189.28516,98.04492 v 167.41016 a 16,16 45 0 0 16,16 h 66.46289 a 16,16 135 0 0 16,-16 v -75.18555 a 16,16 135 0 1 16,-16 h 197.98242 a 16,16 45 0 1 16,16 v 77.43555 a 32.792205,32.792205 116.00871 0 1 -12.61117,25.84675 l -52.50032,40.99204 a 46.23252,46.23252 161.10697 0 1 -28.61108,9.79187 l -8.99822,-0.0309 A 15.945215,15.945215 135.09826 0 0 399.00977,360.25 v 0.15234 44.77149 32.00195 a 16,16 45 0 0 16,16 h 8.98437 a 46.489701,46.489701 18.991529 0 1 28.61108,9.84686 l 52.51417,41.00355 a 32.792556,32.792556 63.991529 0 1 12.61108,25.84686 v 77.4375 a 16,16 135 0 1 -16,16 H 303.74805 a 16,16 45 0 1 -16,-16 v -75.1875 a 16,16 45 0 0 -16,-16 h -66.46289 a 16,16 135 0 0 -16,16 V 699.5332 a 16,16 45 0 0 16,16 h 66.46289 229.98242 16.33008 82.13281 a 16,16 135 0 0 16,-16 V 499.16211 A 32.975655,32.975655 64.11704 0 0 603.62554,473.2601 l -81.95225,-64.56903 a 12.606011,12.606011 90.000366 0 1 1.3e-4,-19.80386 l 27.65707,-21.79005 a 1276687.9,1276687.9 141.76593 0 0 25.13565,-19.80402 l 29.15952,-22.97495 a 32.976171,32.976171 115.88261 0 0 12.5677,-25.90217 V 98.04492 a 16,16 45 0 0 -16,-16 H 534.06055 517.73047 303.74805 205.28516 a 16,16 135 0 0 -16,16 z"
       inkscape:path-effect="#path-effect1136"
       inkscape:original-d="m 189.28516,82.04492 v 199.41016 h 98.46289 V 174.26953 H 517.73047 V 283.70508 L 440.00781,344.39062 399.00977,344.25 v 32.15234 44.77149 32.00195 h 40.98437 l 77.73633,60.69727 v 109.4375 H 287.74805 V 516.12305 H 189.28516 V 715.5332 h 98.46289 229.98242 0.33008 98.13281 V 483.16211 l -107.08789,-84.37305 52.79297,-41.59375 54.29492,-42.77929 V 82.04492 h -98.13281 -0.33008 -229.98242 z"
       inkscape:label="three_bottom"
       transform="scale(0.26458334)"
       sodipodi:nodetypes="ccccccccccccccccccccccccccccccc" />
    <path
       id="path1138"
       style="fill:#c6dce1;fill-opacity:1;stroke-width:1.06557"
       d="m 205.28516,92.044922 c -3.26328,0 -6,2.736729 -6,6 V 265.45508 c 0,3.26326 2.73673,6 6,6 h 66.46289 c 3.26325,0 6,-2.73675 6,-6 v -75.18555 c 0,-14.40984 11.59015,-26 26,-26 h 197.98242 c 14.40985,0 26,11.59015 26,26 v 77.43555 c 0,13.18126 -6.06734,25.61825 -16.45703,33.73047 l -52.5,40.99023 c -9.93672,7.75855 -22.19262,11.9534 -34.80078,11.91016 l -8.99805,-0.0312 c -3.24128,-0.0111 -5.96484,2.70351 -5.96484,5.94531 v 0.15234 44.77149 32.00195 c 0,3.26328 2.73672,6 6,6 h 8.98437 c 12.59949,0 24.83544,4.21128 34.76563,11.96484 l 52.51367,41.00196 c 10.38963,8.11233 16.45703,20.54917 16.45703,33.73047 v 77.4375 c 0,14.40984 -11.59015,26 -26,26 H 303.74805 c -14.40985,0 -26,-11.59016 -26,-26 v -75.1875 c 0,-3.26327 -2.73674,-6 -6,-6 h -66.46289 c -3.26328,0 -6,2.73672 -6,6 V 699.5332 c 0,3.26328 2.73672,6 6,6 h 66.46289 229.98242 16.33008 82.13281 c 3.26328,0 6,-2.73672 6,-6 V 499.16211 c 0,-7.03493 -3.23164,-13.69288 -8.75781,-18.04688 l -81.95117,-64.56835 c -11.60961,-9.14707 -11.60985,-26.36865 0,-35.51563 l 27.65624,-21.78906 25.13672,-19.80469 29.15821,-22.97461 c 5.52639,-4.35428 8.75781,-11.01197 8.75781,-18.04687 V 98.044922 c 0,-3.263271 -2.73673,-6 -6,-6 H 534.06055 517.73047 303.74805 Z"
       inkscape:path-effect="#path-effect1140;#path-effect1142"
       inkscape:original-d="m 189.28516,82.04492 v 199.41016 h 98.46289 V 174.26953 H 517.73047 V 283.70508 L 440.00781,344.39062 399.00977,344.25 v 32.15234 44.77149 32.00195 h 40.98437 l 77.73633,60.69727 v 109.4375 H 287.74805 V 516.12305 H 189.28516 V 715.5332 h 98.46289 229.98242 0.33008 98.13281 V 483.16211 l -107.08789,-84.37305 52.79297,-41.59375 54.29492,-42.77929 V 82.04492 h -98.13281 -0.33008 -229.98242 z"
       inkscape:label="three_top"
       transform="scale(0.26458334)"
       sodipodi:nodetypes="ccccccccccccccccccccccccccccccc" />
  </g>
</svg>
