<?xml version="1.0" encoding="UTF-8"?>
<svg width="800" height="800" version="1.1" viewBox="0 0 211.66667 211.66667" xmlns="http://www.w3.org/2000/svg" xmlns:cc="http://creativecommons.org/ns#" xmlns:dc="http://purl.org/dc/elements/1.1/" xmlns:rdf="http://www.w3.org/1999/02/22-rdf-syntax-ns#">
 <metadata>
  <rdf:RDF>
   <cc:Work rdf:about="">
    <dc:format>image/svg+xml</dc:format>
    <dc:type rdf:resource="http://purl.org/dc/dcmitype/StillImage"/>
    <dc:title/>
   </cc:Work>
  </rdf:RDF>
 </metadata>
 <g fill-rule="evenodd" stroke-width=".264583">
  <path d="m16 0h179.66667a16 16 45 0 1 16 16v179.66667a16 16 135 0 1-16 16h-179.66667a16 16 45 0 1-16-16v-179.66667a16 16 135 0 1 16-16z" fill="#1c1d2b"/>
  <path d="m20 20v171.66602h171.66602v-171.66602z" fill="#5b6985"/>
  <path d="m16 10c-3.263267 0-6 2.736733-6 6v179.66602c0 3.26325 2.736737 6 6 6h179.66602c3.26325 0 6-2.73675 6-6v-179.66602c0-3.263263-2.73675-6-6-6z" fill="#8faec6"/>
 </g>
 <g stroke-width="1.04669">
  <path id="eight_bottom" transform="scale(.26458334)" d="m249.75781 104.04492c-33.39817-1.3e-4 -60.47277 29.66215-60.47265 66.25196v191.75781c8.5e-4 32.50424 21.37357 59.5209 49.55859 65.15234-27.4841 5.99296-48.14352 31.61524-48.14453 62.32031v184.23047c-3.4e-4 35.15358 27.07446 63.65227 60.47266 63.65235l305.96289 2e-3c33.39817 3.4e-4 60.47258-28.49877 60.47265-63.65234v-184.23052c-7e-4 -31.23883-21.38694-57.20298-49.58594-62.60157 27.4988-6.22557 48.17105-32.90202 48.17188-64.87304v-191.75781c1.1e-4 -36.58982-27.07448-66.25209-60.47266-66.25196zm88.625 84.06446c0.0573-1e-4 0.11458-1e-4 0.17188 0h125.80469c33.39741 1e-3 60.47081 29.66297 60.4707 66.25195v47.18945c1.1e-4 36.58897-27.07333 66.24895-60.4707 66.25h-125.80469c-33.39818 1.3e-4 -60.47278-29.66019-60.47266-66.25v-47.18945c-2.6e-4 -36.5164 26.96975-66.1483 60.30078-66.25195zm0.15039 295.89648 125.80469 2e-3c33.39817 8e-5 60.47292 28.49682 60.47266 63.65039v45.33594c7e-5 35.08305-26.96974 63.55103-60.30078 63.65039-0.0575 8e-5 -0.11443 8e-5 -0.17188 0h-125.80469c-33.39742-1e-3 -60.47102-28.49761-60.4707-63.65039v-45.33789c6e-5 -35.15278 27.07329-63.64956 60.4707-63.65039z" fill="#1c1d2b" opacity=".995"/>
  <path transform="scale(.26458334)" d="m249.75781 114.04492c-27.38473-1e-4 -50.47276 24.67224-50.47265 56.25196v191.75781c7.3e-4 28.15479 18.36634 50.72002 41.51757 55.3457l46.93946 9.37891-46.76758 10.19726c-22.68785 4.94713-40.27453 26.34861-40.27539 52.55078v184.23047c-2.9e-4 29.8586 22.94088 53.65228 50.47266 53.65235l305.96289 2e-3c27.53162 2.8e-4 50.47259-23.79372 50.47265-53.65234v-184.23052c-6e-4 -26.65688-18.18549-48.32219-41.4668-52.7793l-47.02539-9.00391 46.69727-10.57226c22.58997-5.11424 40.38014-27.42492 40.38086-55.11914v-191.75781c9e-5 -31.57978-23.08795-56.25206-50.47266-56.25196zm88.59375 64.06446h0.012c0.0701-1.4e-4 0.14084-1.4e-4 0.21094 0h125.78516c39.41104 1e-3 70.47082 34.65299 70.4707 76.25195v47.18945c1.2e-4 41.59893-31.06039 76.24876-70.4707 76.25h-125.80497c-39.41122 1.5e-4 -70.4728-34.6501-70.47266-76.25v-47.18945c-2.9e-4 -41.51712 30.93623-76.12965 70.26953-76.25195zm284.65235 206.60351c-0.039 0.13546-0.0775 0.2711-0.11719 0.40625 0.0397-0.13526 0.0782-0.27068 0.11719-0.40625zm-440.38672 0.48828c0.0136 0.0463 0.0273 0.0924 0.041 0.13867-0.0137-0.0462-0.0273-0.0924-0.041-0.13867zm439.46679 2.49024c-0.0432 0.13047-0.0831 0.26241-0.12695 0.39257 0.0437-0.1302 0.0839-0.26206 0.12695-0.39257zm-438.50781 0.53906c0.0251 0.0741 0.049 0.1487 0.0742 0.22265-0.0253-0.0739-0.0491-0.14861-0.0742-0.22265zm437.39063 2.62695c-0.0669 0.1769-0.13894 0.35109-0.20703 0.52735 0.068-0.17635 0.14023-0.35036 0.20703-0.52735zm-1.05664 2.64063c-0.12754 0.30385-0.25756 0.60643-0.38868 0.9082 0.13096-0.302 0.2613-0.60413 0.38868-0.9082zm-434.04883 0.68164c0.0778 0.18089 0.15721 0.36087 0.23633 0.54101-0.0792-0.18016-0.1584-0.3601-0.23633-0.54101zm432.9375 1.83789c-0.16701 0.36201-0.32979 0.72714-0.50195 1.08594 0.17205-0.35921 0.33507-0.72352 0.50195-1.08594zm-431.62695 1.04883c0.067 0.13994 0.13339 0.28047 0.20117 0.41992-0.0679-0.13945-0.13411-0.27998-0.20117-0.41992zm430.0371 2.21289c-0.22336 0.43071-0.45467 0.85562-0.68554 1.28125 0.23058-0.42585 0.46247-0.85032 0.68554-1.28125zm-428.51171 0.8125c0.0982 0.18417 0.20318 0.36365 0.30273 0.54687-0.0996-0.18321-0.20447-0.36271-0.30273-0.54687zm427.23046 1.55273c-0.26865 0.47706-0.54029 0.95162-0.81835 1.42188 0.27769-0.47045 0.55006-0.94464 0.81835-1.42188zm-425.82226 0.96094c0.1664 0.28617 0.33603 0.56987 0.50586 0.85351-0.16996-0.28358-0.33932-0.56741-0.50586-0.85351zm424.59961 1.13086c-1.09763 1.81412-2.26212 3.57882-3.4961 5.2832 1.233-1.70565 2.39954-3.4677 3.4961-5.2832zm-423.11524 1.30859c0.18868 0.29856 0.37195 0.60094 0.56446 0.89649-0.19254-0.2953-0.37575-0.59818-0.56446-0.89649zm2.00196 3.02344c0.24796 0.35415 0.50619 0.69946 0.75976 1.04883-0.25367-0.34917-0.5117-0.69488-0.75976-1.04883zm417.60351 0.9707c-4.93684 6.81433-10.933 12.71261-17.74609 17.39453 4e-3 3e-3 8e-3 5e-3 0.0117 8e-3 6.81251-4.68221 12.8015-10.58301 17.73437-17.40235zm-17.73437 17.40235c-2e-3 1e-3 -2e-3 3e-3 -4e-3 4e-3 1.91767 1.20741 3.7754 2.50719 5.56641 3.89258-1.79121-1.38619-3.64431-2.68874-5.5625-3.89648zm-398.22852-16.12891c0.27602 0.36507 0.55571 0.72648 0.83789 1.08594-0.28209-0.35903-0.56195-0.72132-0.83789-1.08594zm1.70899 2.16797c0.30357 0.37235 0.60384 0.74736 0.91406 1.11328-0.31045-0.36588-0.61026-0.74096-0.91406-1.11328zm2.45507 2.87305c0.37239 0.41226 0.75376 0.81362 1.13477 1.21679-0.381-0.40288-0.76238-0.80484-1.13477-1.21679zm1.82422 1.93945c0.39327 0.40499 0.78943 0.8059 1.19141 1.20117-0.40199-0.39505-0.79811-0.79641-1.19141-1.20117zm1.8125 1.79883c1.4292 1.37251 2.91165 2.68198 4.44336 3.92773-1.53197-1.24549-3.01378-2.55565-4.44336-3.92773zm5 4.3789c0.48624 0.38739 0.97676 0.76841 1.47266 1.14258-0.49543-0.37374-0.98686-0.75567-1.47266-1.14258zm1.94727 1.49414c1.12083 0.83106 2.26015 1.63463 3.42773 2.39649l2e-3 -2e-3c-1.16771-0.76196-2.30867-1.56349-3.42969-2.39454zm3.42773 2.39649c-6.79227 4.51275-12.77412 10.19611-17.70508 16.77344 4.93502-6.57156 10.92459-12.25337 17.7168-16.76563-4e-3 -3e-3 -8e-3 -5e-3 -0.0117-8e-3zm392.59961 9.15039c1.45713 1.46632 2.85033 2.99933 4.18164 4.58984-1.33056-1.59128-2.72515-3.1229-4.18164-4.58984zm4.60157 5.0918c0.38098 0.46353 0.75503 0.93291 1.125 1.40625-0.36983-0.47367-0.74415-0.94241-1.125-1.40625zm1.63281 2.0664c0.35393 0.46355 0.7075 0.92792 1.05078 1.40039-0.34328-0.47305-0.69683-0.93628-1.05078-1.40039zm2.38672 3.30078c0.25399 0.37378 0.49673 0.75593 0.74414 1.13477-0.24719-0.37896-0.49037-0.76087-0.74414-1.13477zm1.49804 2.30664c0.23676 0.37785 0.47096 0.75807 0.70117 1.14063-0.23012-0.38291-0.4645-0.76244-0.70117-1.14063zm-424.24609 0.46875c-0.33316 0.54167-0.6568 1.0895-0.97656 1.64063 0.32006-0.55056 0.64311-1.09953 0.97656-1.64063zm425.77344 2.08789c0.17773 0.31065 0.35977 0.61811 0.5332 0.93164-0.17327-0.31367-0.35564-0.62086-0.5332-0.93164zm-427.10938 0.17969c-0.29603 0.52182-0.59109 1.04434-0.875 1.57422 0.28425-0.52943 0.57864-1.05285 0.875-1.57422zm428.91211 3.15235c0.0884 0.17454 0.17267 0.35198 0.25977 0.52734-0.0871-0.1755-0.17141-0.35266-0.25977-0.52734zm-430.84765 0.4707c-0.17133 0.34494-0.3338 0.69491-0.5 1.04297 0.16638-0.34769 0.32851-0.6984 0.5-1.04297zm432.09765 2.13281c0.10464 0.228 0.20811 0.45628 0.31055 0.68555-0.10232-0.22932-0.20603-0.4575-0.31055-0.68555zm-433.26953 0.34766c-0.15679 0.34703-0.31118 0.695-0.46289 1.04492 0.15183-0.34942 0.306-0.69839 0.46289-1.04492zm-1.24414 2.91211c-0.0813 0.20225-0.16649 0.40232-0.24609 0.60547 0.0798-0.20319 0.16461-0.40319 0.24609-0.60547zm437.01172 2.8789c0.0337 0.0946 0.0644 0.19039 0.0977 0.28516-0.0332-0.0947-0.064-0.19059-0.0977-0.28516zm-438.25196 0.40821c-0.0393 0.1126-0.0745 0.22698-0.11328 0.33984 0.0388-0.1128 0.074-0.22729 0.11328-0.33984zm439.22657 2.52929c0.0305 0.0983 0.0617 0.19643 0.0918 0.29492-0.0301-0.0985-0.0613-0.19653-0.0918-0.29492zm-440.125 0.23242c-0.0583 0.19059-0.11695 0.38103-0.17383 0.57227 0.057-0.19118 0.11538-0.38174 0.17383-0.57227zm154.47851 6.92774 125.80469 2e-3c39.26407 1e-4 70.47296 33.20176 70.47266 73.65039v45.33594c8e-5 40.36814-31.08518 73.53358-70.27149 73.65039h-0.016c-0.0622 9e-5 -0.12342 8e-5 -0.18555 0h-125.80431c-39.2637-1e-3 -70.47107-33.20264-70.4707-73.65039v-45.33789c7e-5 -40.44763 31.20725-73.64941 70.4707-73.65039z" fill="#c6dce1" opacity=".996"/>
 </g>
</svg>
