<?xml version="1.0" encoding="UTF-8"?>
<svg width="800" height="800" version="1.1" viewBox="0 0 211.66667 211.66667" xmlns="http://www.w3.org/2000/svg" xmlns:cc="http://creativecommons.org/ns#" xmlns:dc="http://purl.org/dc/elements/1.1/" xmlns:rdf="http://www.w3.org/1999/02/22-rdf-syntax-ns#">
 <metadata>
  <rdf:RDF>
   <cc:Work rdf:about="">
    <dc:format>image/svg+xml</dc:format>
    <dc:type rdf:resource="http://purl.org/dc/dcmitype/StillImage"/>
    <dc:title/>
   </cc:Work>
  </rdf:RDF>
 </metadata>
 <g fill-rule="evenodd" stroke-width=".264583">
  <path d="m16 0h179.66667a16 16 45 0 1 16 16v179.66667a16 16 135 0 1-16 16h-179.66667a16 16 45 0 1-16-16v-179.66667a16 16 135 0 1 16-16z" fill="#1c1d2b"/>
  <path d="m20 20v171.66602h171.66602v-171.66602z" fill="#5b6985"/>
  <path d="m16 10c-3.263267 0-6 2.736733-6 6v179.66602c0 3.26325 2.736737 6 6 6h179.66602c3.26325 0 6-2.73675 6-6v-179.66602c0-3.263263-2.73675-6-6-6z" fill="#8faec6"/>
 </g>
 <g stroke-width=".999999">
  <path transform="scale(.26458334)" d="m189.28516 104.04492v293.31055l76.28711 19.64453h2.27734c11.09575-17.24421 30.1742-27.69074 50.67969-27.75 0.0573-8e-5 0.11458-8e-5 0.17187 0h164.80664c33.39818-1.2e-4 60.47278 27.07448 60.47266 60.47266v164.80468c1.2e-4 33.39818-27.07448 60.47278-60.47266 60.47266h-164.80664c-30.67738-8.9e-4 -56.49373-22.97209-60.06055-53.44141h-69.35546v55.38086c-1.2e-4 33.39817 27.07448 60.47277 60.47265 60.47266h305.4668c33.39818 1.2e-4 60.47278-27.07448 60.47266-60.47266v-305.46679c1.2e-4 -33.39818-27.07448-60.47278-60.47266-60.47266h-225.4668c-0.0573-8e-5 -2.11458-8e-5 -2.17187 0-9.898 0.0281-26.1271 2.44705-44.03516 6.6875v-127.6875h332.64258v-85.95508z" fill="#1c1d2b" opacity=".995"/>
  <path transform="scale(.26458334)" d="m199.28516 114.04492v275.56055l64.17578 16.52539c13.23981-16.77933 33.42032-26.81838 55.03906-26.88086h0.016c0.0666-9e-5 0.13262-9e-5 0.19922 0h164.79297c38.97146-1.4e-4 70.4728 31.50116 70.47266 70.47266v164.80468c-2.4e-4 38.97146-31.50154 70.4728-70.47304 70.47266h-164.80664c-32.78193-9.5e-4 -60.62209-22.38136-68.31836-53.44141h-51.09765v45.38086c-1e-4 27.82489 22.6478 50.47275 50.47265 50.47266h305.4668c27.8249 1e-4 50.47276-22.64779 50.47266-50.47266v-305.46679c1e-4 -27.82491-22.64779-50.47276-50.47266-50.47266h-227.62514c-9.10023 0.028-24.08903 2.23741-41.74414 6.41797l-12.30469 2.91406v-150.33203h332.64272v-65.95508zm126.92187 186.98828c-0.3453 7e-3 -0.68748 0.0152-1.04492 0.0273 0.35729-0.0122 0.69984-0.02 1.04492-0.0273zm-2.68555 0.0957c-0.22352 0.0115-0.4619 0.0298-0.68945 0.043 0.22782-0.0133 0.46569-0.0314 0.68945-0.043zm-4.65234 0.33984c-0.31812 0.0284-0.63313 0.055-0.95703 0.0859 0.32379-0.0312 0.63903-0.0573 0.95703-0.0859zm-5.23633 0.55273c-0.28642 0.0345-0.55784 0.0615-0.84765 0.0977 0.29021-0.0365 0.56084-0.0628 0.84765-0.0977zm-5.86133 0.78907c-0.85613 0.12657-1.74177 0.27121-2.61914 0.41015 0.87771-0.13959 1.76259-0.28284 2.61914-0.41015zm-5.15039 0.82031c-1.12478 0.18893-2.26013 0.38823-3.41211 0.5957 1.15116-0.20774 2.28788-0.40622 3.41211-0.5957zm-5.1875 0.92383c-1.28657 0.23945-2.57026 0.47924-3.88281 0.74023 1.31055-0.26054 2.59779-0.50075 3.88281-0.74023z" fill="#c6dce1" opacity=".995"/>
 </g>
</svg>
