<?xml version="1.0" encoding="UTF-8"?>
<svg width="800" height="800" version="1.1" viewBox="0 0 211.66667 211.66667" xmlns="http://www.w3.org/2000/svg" xmlns:cc="http://creativecommons.org/ns#" xmlns:dc="http://purl.org/dc/elements/1.1/" xmlns:rdf="http://www.w3.org/1999/02/22-rdf-syntax-ns#">
 <metadata>
  <rdf:RDF>
   <cc:Work rdf:about="">
    <dc:format>image/svg+xml</dc:format>
    <dc:type rdf:resource="http://purl.org/dc/dcmitype/StillImage"/>
    <dc:title/>
   </cc:Work>
  </rdf:RDF>
 </metadata>
 <g fill-rule="evenodd" stroke-width=".264583">
  <path d="m16 0h179.66667a16 16 45 0 1 16 16v179.66667a16 16 135 0 1-16 16h-179.66667a16 16 45 0 1-16-16v-179.66667a16 16 135 0 1 16-16z" fill="#1c1d2b"/>
  <path d="m20 20v171.66602h171.66602v-171.66602z" fill="#5b6985"/>
  <path d="m16 10c-3.263267 0-6 2.736733-6 6v179.66602c0 3.26325 2.736737 6 6 6h179.66602c3.26325 0 6-2.73675 6-6v-179.66602c0-3.263263-2.73675-6-6-6z" fill="#8faec6"/>
 </g>
 <g stroke-width=".999999">
  <path id="four_bottom" transform="scale(.26458334)" d="m333.00982 117.90136-135.38292 234.4922a60.602657 60.602657 105.21031 0 0-8.11747 29.85601l-0.013 1.77039a3636.2638 3636.2638 90.168728 0 0-0.0942 31.99955l0.0628 43.15629a16.023301 16.023301 44.958311 0 0 16.02328 15.99998h177.52149a16 16 45 0 1 16 16v230.23633a16 16 45 0 0 16 16h63.18359a16 16 135 0 0 16-16v-230.23633a16 16 135 0 1 16-16h24.9707a16 16 135 0 0 16-16v-43.15625a16 16 45 0 0-16-16h-24.9707a16 16 45 0 1-16-16v-263.97461a16 16 45 0 0-16-16h-121.18359a27.712689 27.712689 149.99989 0 0-23.99995 13.85644zm65.99995 87.55176v178.56641a16 16 135 0 1-16 16h-89.57032a9.2376139 9.2376139 59.999974 0 1-8.00001-13.85641l105.57034-182.85359a4.2871793 4.2871793 14.999974 0 1 7.99999 2.14359z" fill="#1c1d2b" opacity=".995"/>
  <path transform="scale(.26458334)" d="m357.00977 114.04492c-6.31707 0-12.18185 3.3856-15.33985 8.85547l-135.38281 234.49414c-4.37809 7.58314-6.71303 16.17357-6.77734 24.92969l-0.0137 1.77344c-0.0781 10.63283-0.10922 21.27063-0.0937 31.9082l0.0625 43.15625c5e-3 3.27214 2.75112 6.01367 6.02344 6.01367h177.52149c14.40984 0 26 11.59015 26 26v230.23633c0 3.26328 2.73672 6 6 6h63.18359c3.26328 0 6-2.73672 6-6v-230.23633c0-14.40984 11.59015-26 26-26h24.9707c3.26328 0 6-2.73672 6-6v-43.15625c0-3.26326-2.73673-6-6-6h-24.9707c-14.40984 0-26-11.59016-26-26v-263.97461c0-3.26326-2.73673-6-6-6h-63.18359zm38 77.0918c1.13802 0.0405 2.2824 0.21345 3.41015 0.51562 6.01841 1.61262 10.58985 6.64253 10.58985 13.80078v178.56641c0 14.40985-11.59017 26-26 26h-89.57032c-14.7781 0-24.04942-16.05685-16.66015-28.85547l105.57031-182.85547c2.68489-4.65039 6.99871-6.97602 11.52539-7.16797 0.37722-0.016 0.75542-0.0174 1.13477-4e-3z" fill="#c6dce1" opacity=".995"/>
 </g>
</svg>
