<?xml version="1.0" encoding="UTF-8"?>
<svg width="800" height="800" version="1.1" viewBox="0 0 211.66667 211.66667" xmlns="http://www.w3.org/2000/svg" xmlns:cc="http://creativecommons.org/ns#" xmlns:dc="http://purl.org/dc/elements/1.1/" xmlns:rdf="http://www.w3.org/1999/02/22-rdf-syntax-ns#">
 <metadata>
  <rdf:RDF>
   <cc:Work rdf:about="">
    <dc:format>image/svg+xml</dc:format>
    <dc:type rdf:resource="http://purl.org/dc/dcmitype/StillImage"/>
    <dc:title/>
   </cc:Work>
  </rdf:RDF>
 </metadata>
 <g fill-rule="evenodd" stroke-width=".264583">
  <path d="m16 0h179.66667a16 16 45 0 1 16 16v179.66667a16 16 135 0 1-16 16h-179.66667a16 16 45 0 1-16-16v-179.66667a16 16 135 0 1 16-16z" fill="#1c1d2b"/>
  <path d="m20 20v171.66602h171.66602v-171.66602z" fill="#5b6985"/>
  <path d="m16 10c-3.263267 0-6 2.736733-6 6v179.66602c0 3.26325 2.736737 6 6 6h179.66602c3.26325 0 6-2.73675 6-6v-179.66602c0-3.263263-2.73675-6-6-6z" fill="#8faec6"/>
 </g>
 <g stroke-width=".251492">
  <path d="m147.03442 195.10696c8.83653 3e-5 16-7.56855 16.00005-16.90491v-60.50742c-4e-5 -0.22073-4e-3 -0.44142-0.0124-0.66198h0.0124v-11.79618c4e-5 -0.0198 4e-5 -0.0396 0-0.0594v-60.507939c-5e-5 -9.336366-7.16352-16.904944-16.00005-16.904913h-80.952686c-8.836538-3.4e-5 -16 7.568544-16.000058 16.904913v60.507939c5.8e-5 9.33636 8.221856 16.90494 17.058392 16.90491h76.133342v6.982c0.10906 0.79909 0.16381 1.60541 0.16381 2.41277v29.70517c-2e-5 9.31763-7.13581 16.87846-15.95458 16.90491-0.0152 2e-5 -0.0303 2e-5 -0.0455 0h-38.114447c-8.836539 3e-5 -16.000001-7.56854-16.000059-16.90491v-8.0946h-23.240958v25.11475c5.8e-5 9.33636 7.163523 16.90494 16.000058 16.90491zm-19.54041-93.22015h-0.0114c-0.0152 0-0.0303 2e-5 -0.0455 0h-40.760259c-8.836538 3e-5 -16-7.568546-16.000058-16.904914v-23.355682c5.8e-5 -9.336368 7.16352-16.904946 16.000058-16.904912h40.760309c8.83654-3.2e-5 16 7.568547 16.00006 16.904912v23.355682c0 9.312963-7.12888 16.871854-15.94321 16.904914z" fill="#1c1d2b" opacity=".995"/>
  <path d="m66.082031 30.410156c-7.278267-2.8e-5 -13.353466 6.319038-13.353515 14.259766v60.507808c4.9e-5 7.88008 6.991828 14.25784 14.412109 14.25782h78.779295v9.6289c0.0951 0.80049 0.16406 1.60426 0.16406 2.41211v29.70508c-2e-5 10.7108-8.22 19.51967-18.59375 19.55078-0.022 3e-5 -0.0391 2e-5 -0.0566 0h-38.111364c-10.394408 4e-5 -18.646418-8.81877-18.646485-19.55078v-5.44726h-17.947265v22.46679c4.9e-5 7.9407 6.075262 14.25979 13.353515 14.25977h80.953129c7.27825 2e-5 13.35347-6.31906 13.35351-14.25977v-60.50586c-3e-5 -0.17934-4e-3 -0.36488-0.0117-0.56054l-0.10351-2.74805h0.11523v-9.15039c4e-5 -0.0215 3e-5 -0.0366 0-0.0527v-60.513668c-4e-5 -7.940706-6.07527-14.259791-13.35351-14.259766zm20.595703 11.664063h40.759766c10.39481-3.8e-5 18.64642 8.820728 18.64648 19.552734v23.355469c0 10.705407-8.2115 19.511888-18.58007 19.550778h-0.0215c-0.014 0-0.0314 3e-5 -0.0488 0h-40.755876c-10.394406 4e-5 -18.646417-8.818769-18.646484-19.550778v-23.355469c6.7e-5 -10.732026 8.251666-19.552774 18.646484-19.552734z" fill="#c6dce1" opacity=".995"/>
 </g>
</svg>
