<?xml version="1.0" encoding="UTF-8"?>
<svg width="800" height="800" version="1.1" viewBox="0 0 211.66667 211.66667" xmlns="http://www.w3.org/2000/svg" xmlns:cc="http://creativecommons.org/ns#" xmlns:dc="http://purl.org/dc/elements/1.1/" xmlns:rdf="http://www.w3.org/1999/02/22-rdf-syntax-ns#">
 <metadata>
  <rdf:RDF>
   <cc:Work rdf:about="">
    <dc:format>image/svg+xml</dc:format>
    <dc:type rdf:resource="http://purl.org/dc/dcmitype/StillImage"/>
    <dc:title/>
   </cc:Work>
  </rdf:RDF>
 </metadata>
 <g fill-rule="evenodd" stroke-width=".264583">
  <path x="0" y="-2.220446e-16" width="211.66667" height="211.66667" d="m16 0h179.66667a16 16 45 0 1 16 16v179.66667a16 16 135 0 1-16 16h-179.66667a16 16 45 0 1-16-16v-179.66667a16 16 135 0 1 16-16z" fill="#1c1d2b"/>
  <path x="7.1054274e-15" y="0" width="211.66667" height="211.66667" d="m20 20v171.66602h171.66602v-171.66602z" fill="#5b6985"/>
  <path x="0" y="-1.4210855e-14" width="211.66667" height="211.66667" d="m16 10c-3.263267 0-6 2.736733-6 6v179.66602c0 3.26325 2.736737 6 6 6h179.66602c3.26325 0 6-2.73675 6-6v-179.66602c0-3.263263-2.73675-6-6-6z" fill="#8faec6"/>
 </g>
 <g stroke-width=".288506">
  <path id="one_bottom" d="m94.328951 22.9683-41.095582 29.0411a5.5169102 5.5169102 102.56606 0 0-1.612086 7.232176l7.610248 13.385531a4.531499 4.531499 12.56592 0 0 6.554539 1.46102l28.542896-20.170684a2.5890934 2.5890934 27.375965 0 1 4.083305 2.114412v133.73262a5 5 45 0 0 4.999999 5h19.12384a5 5 135 0 0 5-5v-164.68175a5 5 45 0 0-5-5h-19.12384a15.739224 15.739224 162.37611 0 0-9.083319 2.885568z" fill="#1c1d2b"/>
  <path d="m103.41211 22.728516c-2.70576 0-5.346191 0.838327-7.556641 2.40039l-41.095703 29.041016c-1.19005 0.840975-1.558488 2.496225-0.837891 3.763672l7.611328 13.384765c0.548816 0.965303 1.818199 1.249917 2.724609 0.609375l28.542969-20.169922c3.440697-2.431468 8.257809 0.05918 8.257809 4.273438v133.73242c0 1.28683 1.0667 2.35352 2.35352 2.35352h19.12305c1.28682 0 2.35351-1.06669 2.35351-2.35352v-164.68164c0-1.286821-1.0667-2.353515-2.35351-2.353515z" fill="#c6dce1" opacity=".999"/>
 </g>
</svg>
