<?xml version="1.0" encoding="UTF-8"?>
<svg width="800" height="800" version="1.1" viewBox="0 0 211.66667 211.66667" xmlns="http://www.w3.org/2000/svg" xmlns:cc="http://creativecommons.org/ns#" xmlns:dc="http://purl.org/dc/elements/1.1/" xmlns:rdf="http://www.w3.org/1999/02/22-rdf-syntax-ns#">
 <metadata>
  <rdf:RDF>
   <cc:Work rdf:about="">
    <dc:format>image/svg+xml</dc:format>
    <dc:type rdf:resource="http://purl.org/dc/dcmitype/StillImage"/>
   </cc:Work>
  </rdf:RDF>
 </metadata>
 <g fill-rule="evenodd" stroke-width=".264583">
  <path d="m16 0h179.66667a16 16 45 0 1 16 16v179.66667a16 16 135 0 1-16 16h-179.66667a16 16 45 0 1-16-16v-179.66667a16 16 135 0 1 16-16z" fill="#1c1d2b"/>
  <path d="m20 20v171.66602h171.66602v-171.66602z" fill="#5b6985"/>
  <path d="m16 10c-3.263267 0-6 2.736733-6 6v179.66602c0 3.26325 2.736737 6 6 6h179.66602c3.26325 0 6-2.73675 6-6v-179.66602c0-3.263263-2.73675-6-6-6z" fill="#8faec6"/>
 </g>
 <g display="none" stroke-width=".950521">
  <path transform="scale(.26458334)" d="m249.75781 104.93555a60.472441 63.893 0 0 0-60.47265 63.89257v228.68946a60.472441 63.893 0 0 0 0.0469 2.50195h-0.0469v44.58399a60.47244 63.892999 0 0 0 0 0.2246v228.69141a60.47244 63.892999 0 0 0 60.47265 63.89258h305.96289a60.47244 63.892999 0 0 0 60.47266-63.89258v-228.69141a60.47244 63.892999 0 0 0-60.47266-63.89257h-299.74804v-26.38867a60.472441 63.893 0 0 1-0.61914-9.11915v-112.27148a60.472441 63.893 0 0 1 60.30078-63.89258 60.472441 63.893 0 0 1 0.17187 0h166.05469a60.472441 63.893 0 0 1 60.47266 63.89258v30.59375h73.83984v-94.92188a60.472441 63.893 0 0 0-60.47266-63.89257zm65.85352 340.32812a60.47244 63.892999 0 0 1 0.043 0 60.47244 63.892999 0 0 1 0.17187 0h166.05469a60.47244 63.892999 0 0 1 60.47266 63.89258v112.27344a60.47244 63.892999 0 0 1-60.47266 63.89258h-166.05472a60.47244 63.892999 0 0 1-60.47265-63.89258v-112.27344a60.47244 63.892999 0 0 1 60.25781-63.89258z" fill="#1c1d2b" opacity=".995"/>
  <path transform="scale(.26458334)" d="m249.75781 114.93555c-26.64977-1.1e-4 -49.03317 22.41144-50.40625 51.09765-0.0443 0.92536-0.0664 1.85705-0.0664 2.79492v228.68946c1.4e-4 0.7088 0.0126 1.41903 0.0391 2.1289l0.38867 10.37305h-0.42773v34.6018c-1.1e-4 0.0633-1.1e-4 0.12617 0 0.18946v228.70922c1.8e-4 30.01208 22.96325 53.89268 50.47265 53.89258h305.96285c27.50946 1.1e-4 50.47247-23.88043 50.47266-53.89258v-228.69189c-1.9e-4 -30.01206-22.96324-53.89268-50.47266-53.89257h-309.74804v-35.80664c-0.40622-3.21672-0.61913-6.45661-0.61914-9.70118v-112.27148c4e-5 -18.97566 6.82492-36.37147 18.11523-49.51172 1.50567-1.7524 3.09111-3.42878 4.75-5.02344 0.82892-0.79683 1.67593-1.57305 2.54102-2.32812 0.86508-0.75506 1.74859-1.49142 2.64843-2.20313 0.90024-0.712 1.81832-1.40132 2.75196-2.06836 2.80046-2.00076 5.74848-3.79564 8.82422-5.36328 1.02542-0.5226 2.06591-1.02089 3.11914-1.49218 5.26557-2.35621 10.87105-4.06093 16.72656-5.01563 3.51371-0.57278 7.11914-0.87569 10.79492-0.88672h0.016c0.0666-9e-5 0.13262-9e-5 0.19922 0h166.04102c39.28642-1.5e-4 70.4724 33.33061 70.47266 73.89258v20.59375h53.83984v-84.92188c-2e-4 -30.01207-22.96324-53.89268-50.47266-53.89257z" fill="#c6dce1" opacity=".995"/>
 </g>
 <g stroke-width=".999999">
  <path transform="scale(.26458334)" d="m189.28516 104.04492v89.95508h325.14843l-0.11132 0.24023-12.80665 27.46289-240.47851 515.70899 111.04101 1.3125 244.11524-544.72461v-89.95508z" fill="#1c1d2b" opacity=".995"/>
  <path transform="scale(.26458334)" d="m199.28516 114.04492v69.95508h330.80468l-6.69922 14.45508-12.8125 27.47461-233.92968 501.66601 88.98828 1.05078 240.55664-536.7832v-77.81836z" fill="#c6dce1" opacity=".995"/>
 </g>
</svg>
