<?xml version="1.0" encoding="UTF-8"?>
<svg width="800" height="800" version="1.1" viewBox="0 0 211.66667 211.66667" xmlns="http://www.w3.org/2000/svg" xmlns:cc="http://creativecommons.org/ns#" xmlns:dc="http://purl.org/dc/elements/1.1/" xmlns:rdf="http://www.w3.org/1999/02/22-rdf-syntax-ns#">
 <metadata>
  <rdf:RDF>
   <cc:Work rdf:about="">
    <dc:format>image/svg+xml</dc:format>
    <dc:type rdf:resource="http://purl.org/dc/dcmitype/StillImage"/>
    <dc:title/>
   </cc:Work>
  </rdf:RDF>
 </metadata>
 <g fill-rule="evenodd" stroke-width=".264583">
  <path d="m16 0h179.66667a16 16 45 0 1 16 16v179.66667a16 16 135 0 1-16 16h-179.66667a16 16 45 0 1-16-16v-179.66667a16 16 135 0 1 16-16z" fill="#1c1d2b"/>
  <path d="m20 20v171.66602h171.66602v-171.66602z" fill="#5b6985"/>
  <path d="m16 10c-3.263267 0-6 2.736733-6 6v179.66602c0 3.26325 2.736737 6 6 6h179.66602c3.26325 0 6-2.73675 6-6v-179.66602c0-3.263263-2.73675-6-6-6z" fill="#8faec6"/>
 </g>
 <g stroke-width=".950521">
  <path transform="scale(.26458334)" d="m249.75781 104.93555c-33.39793-1.2e-4 -60.47243 28.60552-60.47265 63.89257v228.68946c1.7e-4 0.83423 0.0158 1.66837 0.0469 2.50195h-0.0469v44.58399c-1.2e-4 0.0749-1.2e-4 0.14973 0 0.2246v228.69141c2.2e-4 35.28705 27.07472 63.8927 60.47265 63.89258h305.96289c33.39794 1.3e-4 60.47244-28.60552 60.47266-63.89258v-228.69141c-2.2e-4 -35.28705-31.07473-63.8927-64.47266-63.89257h-287.74804v-26.38867c-0.41222-3.0202-0.61913-6.06771-0.61914-9.11915v-112.27148c8e-5 -35.21626 26.96999-63.79261 60.30078-63.89258 0.0573-9e-5 0.11458-9e-5 0.17187 0h144.05469c33.39794-1.3e-4 60.47244 28.60552 60.47266 63.89258v30.59375h87.83984v-94.92188c-2.2e-4 -35.28705-27.07473-63.8927-60.47266-63.89257zm73.85352 352.32812h0.043c0.0573 0 0.11458-9e-5 0.17187 0h154.05469c33.39794-1.3e-4 60.47244 28.60552 60.47266 63.89258v88.27344c-2.2e-4 35.28706-27.07472 63.89271-60.47266 63.89258h-154.05472c-33.39793 1.2e-4 -60.47243-28.60553-60.47265-63.89258v-88.27344c0-35.1986 26.94381-63.76765 60.25781-63.89258z" fill="#1c1d2b" opacity=".995"/>
  <path transform="scale(.26458334)" d="m249.75781 114.93555c-27.50944-1e-4 -50.47247 23.88043-50.47265 53.89257v228.68946c1.4e-4 0.70889 0.0126 1.41919 0.0391 2.1289l0.38867 10.37305h-0.42773v34.5998c-1.1e-4 0.0642-1.1e-4 0.12918 0 0.19336v228.70722c1.8e-4 30.01208 22.96325 53.89268 50.47265 53.89258h305.96285c27.50946 1.1e-4 50.47247-23.88043 50.47266-53.89258v-228.69179c-1.9e-4 -29.78311-26.42793-53.89268-54.47266-53.89257h-297.74804v-36.38867c-0.35928-3.02754-0.61913-6.0681-0.61914-9.11915v-112.27148c9e-5 -40.4814 31.06313-73.77498 70.27148-73.89258h0.014c0.0678-1e-4 0.13536-1e-4 0.20313 0h144.03906c39.28642-1.5e-4 70.4724 33.33061 70.47266 73.89258v20.59375h67.83984v-84.92188c-1.9e-4 -30.01206-22.96325-53.89268-50.47266-53.89257zm73.81641 332.32812h0.0801c0.0521 0 0.11973-1e-4 0.1875 0h154.03906c39.28642-1.5e-4 70.4724 33.33061 70.47266 73.89258v88.27344c-2.6e-4 40.56203-31.1862 73.89273-70.47266 73.89258h-154.05471c-39.28642 1.4e-4 -70.4724-33.33062-70.47265-73.89258v-88.27344c0-40.46127 31.03189-73.74562 70.2207-73.89258z" fill="#c6dce1" opacity=".995"/>
 </g>
</svg>
