<?xml version="1.0" encoding="UTF-8"?>
<svg width="800" height="800" version="1.1" viewBox="0 0 211.66667 211.66667" xmlns="http://www.w3.org/2000/svg" xmlns:cc="http://creativecommons.org/ns#" xmlns:dc="http://purl.org/dc/elements/1.1/" xmlns:rdf="http://www.w3.org/1999/02/22-rdf-syntax-ns#">
 <metadata>
  <rdf:RDF>
   <cc:Work rdf:about="">
    <dc:format>image/svg+xml</dc:format>
    <dc:type rdf:resource="http://purl.org/dc/dcmitype/StillImage"/>
    <dc:title/>
   </cc:Work>
  </rdf:RDF>
 </metadata>
 <g fill-rule="evenodd" stroke-width=".264583">
  <path x="0" y="-2.220446e-16" width="211.66667" height="211.66667" d="m16 0h179.66667a16 16 45 0 1 16 16v179.66667a16 16 135 0 1-16 16h-179.66667a16 16 45 0 1-16-16v-179.66667a16 16 135 0 1 16-16z" fill="#1c1d2b"/>
  <path x="7.1054274e-15" y="0" width="211.66667" height="211.66667" d="m20 20v171.66602h171.66602v-171.66602z" fill="#5b6985"/>
  <path x="0" y="-1.4210855e-14" width="211.66667" height="211.66667" d="m16 10c-3.263267 0-6 2.736733-6 6v179.66602c0 3.26325 2.736737 6 6 6h179.66602c3.26325 0 6-2.73675 6-6v-179.66602c0-3.263263-2.73675-6-6-6z" fill="#8faec6"/>
 </g>
 <g stroke-width="1.06557">
  <path id="three_bottom" transform="scale(.26458334)" d="m189.28516 98.04492v167.41016a16 16 45 0 0 16 16h66.46289a16 16 135 0 0 16-16v-75.18555a16 16 135 0 1 16-16h197.98242a16 16 45 0 1 16 16v77.43555a32.792205 32.792205 116.00871 0 1-12.61117 25.84675l-52.50032 40.99204a46.23252 46.23252 161.10697 0 1-28.61108 9.79187l-8.99822-0.0309a15.945215 15.945215 135.09826 0 0-15.99991 15.94516v76.92578a16 16 45 0 0 16 16h8.98437a46.489701 46.489701 18.991529 0 1 28.61108 9.84686l52.51417 41.00355a32.792556 32.792556 63.991529 0 1 12.61108 25.84686v77.4375a16 16 135 0 1-16 16h-197.98242a16 16 45 0 1-16-16v-75.1875a16 16 45 0 0-16-16h-66.46289a16 16 135 0 0-16 16v167.41015a16 16 45 0 0 16 16h394.9082a16 16 135 0 0 16-16v-200.37109a32.975655 32.975655 64.11704 0 0-12.56782-25.90201l-81.95225-64.56903a12.606011 12.606011 90.000366 0 1 1.3e-4 -19.80386l27.65707-21.79005a1276687.9 1276687.9 141.76593 0 0 25.13565-19.80402l29.15952-22.97495a32.976171 32.976171 115.88261 0 0 12.5677-25.90217v-200.3711a16 16 45 0 0-16-16h-394.9082a16 16 135 0 0-16 16z" fill="#1c1d2b"/>
  <path transform="scale(.26458334)" d="m205.28516 92.044922c-3.26328 0-6 2.736729-6 6v167.41016c0 3.26326 2.73673 6 6 6h66.46289c3.26325 0 6-2.73675 6-6v-75.18555c0-14.40984 11.59015-26 26-26h197.98242c14.40985 0 26 11.59015 26 26v77.43555c0 13.18126-6.06734 25.61825-16.45703 33.73047l-52.5 40.99023c-9.93672 7.75855-22.19262 11.9534-34.80078 11.91016l-8.99805-0.0312c-3.24128-0.0111-5.96484 2.70351-5.96484 5.94531v76.92578c0 3.26328 2.73672 6 6 6h8.98437c12.59949 0 24.83544 4.21128 34.76563 11.96484l52.51367 41.00196c10.38963 8.11233 16.45703 20.54917 16.45703 33.73047v77.4375c0 14.40984-11.59015 26-26 26h-197.98242c-14.40985 0-26-11.59016-26-26v-75.1875c0-3.26327-2.73674-6-6-6h-66.46289c-3.26328 0-6 2.73672-6 6v167.4101c0 3.26328 2.73672 6 6 6h394.9082c3.26328 0 6-2.73672 6-6v-200.37109c0-7.03493-3.23164-13.69288-8.75781-18.04688l-81.95117-64.56835c-11.60961-9.14707-11.60985-26.36865 0-35.51563l27.65624-21.78906 25.13672-19.80469 29.15821-22.97461c5.52639-4.35428 8.75781-11.01197 8.75781-18.04687v-200.3711c0-3.263271-2.73673-6-6-6h-296.44531z" fill="#c6dce1"/>
 </g>
</svg>
