<?xml version="1.0" encoding="UTF-8"?>
<svg width="800" height="800" version="1.1" viewBox="0 0 211.66667 211.66667" xmlns="http://www.w3.org/2000/svg" xmlns:cc="http://creativecommons.org/ns#" xmlns:dc="http://purl.org/dc/elements/1.1/" xmlns:rdf="http://www.w3.org/1999/02/22-rdf-syntax-ns#">
 <metadata>
  <rdf:RDF>
   <cc:Work rdf:about="">
    <dc:format>image/svg+xml</dc:format>
    <dc:type rdf:resource="http://purl.org/dc/dcmitype/StillImage"/>
    <dc:title/>
   </cc:Work>
  </rdf:RDF>
 </metadata>
 <g fill-rule="evenodd" stroke-width=".264583">
  <path x="0" y="-2.220446e-16" width="211.66667" height="211.66667" d="m16 0h179.66667a16 16 45 0 1 16 16v179.66667a16 16 135 0 1-16 16h-179.66667a16 16 45 0 1-16-16v-179.66667a16 16 135 0 1 16-16z" fill="#1c1d2b"/>
  <path x="7.1054274e-15" y="0" width="211.66667" height="211.66667" d="m20 20v171.66602h171.66602v-171.66602z" fill="#5b6985"/>
  <path x="0" y="-1.4210855e-14" width="211.66667" height="211.66667" d="m16 10c-3.263267 0-6 2.736733-6 6v179.66602c0 3.26325 2.736737 6 6 6h179.66602c3.26325 0 6-2.73675 6-6v-179.66602c0-3.263263-2.73675-6-6-6z" fill="#8faec6"/>
 </g>
 <g stroke-width=".994545">
  <path id="two_bottom" transform="scale(.26458334)" d="m189.28516 150.7592v110.99666a16 16 45 0 0 16 16h66.46289a16 16 135 0 0 16-16v-61.37305a16 16 135 0 1 16-16h197.98242a16 16 45 0 1 16 16v63.33203a30.233289 30.233289 117.8886 0 1-13.22971 24.9986l-301.98589 205.40515a30.233289 30.233289 117.8886 0 0-13.22971 24.9986v90.99609 82.00391a16 16 45 0 0 16 16h394.9082a16 16 135 0 0 16-16v-50.00391a16 16 45 0 0-16-16h-301.14063a16 16 45 0 1-16-16v-58.99609a30.387472 30.387472 117.76828 0 1 13.1918-25.05409l306.75703-210.54026a30.387472 30.387472 117.76828 0 0 13.1918-25.05409v-142.56669a43.857143 43.857143 45 0 0-43.85714-43.85714h-38.27567-16.33008-281.73103a46.714285 46.714285 135 0 0-46.71428 46.71428z" fill="#1c1d2b"/>
  <path transform="scale(.26458334)" d="m236 114.04492c-20.22615 0-36.71484 16.48869-36.71484 36.71485v110.99609c0 3.26328 2.73672 6 6 6h66.46289c3.26326 0 6-2.73673 6-6v-61.37305c0-14.40984 11.59015-26 26-26h197.98242c14.40985 0 26 11.59016 26 26v63.33203c0 13.3219-6.59107 25.7758-17.60547 33.26758l-301.98438 205.4043c-5.53775 3.76668-8.85546 10.03425-8.85546 16.73047v173c0 3.26326 2.73673 6 6 6h394.9082c3.26327 0 6-2.73674 6-6v-50.00391c0-3.26326-2.73673-6-6-6h-301.14063c-14.40983 0-26-11.59015-26-26v-58.99609c0-13.31235 6.55673-25.76522 17.53321-33.29883l306.75781-210.53906c5.5379-3.8009 8.84961-10.09299 8.84961-16.81055v-142.56641c0-18.64826-15.20916-33.85742-33.85742-33.85742h-237.87305z" fill="#c6dce1" opacity=".995"/>
 </g>
</svg>
