<?xml version="1.0" encoding="UTF-8"?>
<svg width="800" height="800" version="1.1" viewBox="0 0 211.66667 211.66667" xmlns="http://www.w3.org/2000/svg" xmlns:cc="http://creativecommons.org/ns#" xmlns:dc="http://purl.org/dc/elements/1.1/" xmlns:rdf="http://www.w3.org/1999/02/22-rdf-syntax-ns#">
 <metadata>
  <rdf:RDF>
   <cc:Work rdf:about="">
    <dc:format>image/svg+xml</dc:format>
    <dc:type rdf:resource="http://purl.org/dc/dcmitype/StillImage"/>
    <dc:title/>
   </cc:Work>
  </rdf:RDF>
 </metadata>
 <g fill-rule="evenodd" stroke-width=".264583">
  <path d="m16 0h179.66667a16 16 45 0 1 16 16v179.66667a16 16 135 0 1-16 16h-179.66667a16 16 45 0 1-16-16v-179.66667a16 16 135 0 1 16-16z" fill="#1c1d2b"/>
  <path d="m20 20v171.66602h171.66602v-171.66602z" fill="#5b6985"/>
  <path d="m16 10c-3.263267 0-6 2.736733-6 6v179.66602c0 3.26325 2.736737 6 6 6h179.66602c3.26325 0 6-2.73675 6-6v-179.66602c0-3.263263-2.73675-6-6-6z" fill="#8faec6"/>
 </g>
 <g stroke-width=".999999">
  <path transform="scale(.26458334)" d="m249.75781 104.04492a60.47244 60.47244 0 0 0-60.47265 60.47266v512.42187a60.47244 60.47244 0 0 0 60.47265 60.47266h305.96289a60.47244 60.47244 0 0 0 60.47266-60.47266v-512.42187a60.47244 60.47244 0 0 0-60.47266-60.47266zm95.28125 84.1836a60.47244 60.47244 0 0 1 0.17188 0h115.05664a60.47244 60.47244 0 0 1 60.47265 60.47265v344.05469a60.47244 60.47244 0 0 1-60.47265 60.47266h-115.05664a60.47244 60.47244 0 0 1-60.47071-60.47266v-344.05469a60.47244 60.47244 0 0 1 60.29883-60.47265z" fill="#1c1d2b" opacity=".995"/>
  <path transform="scale(.26458334)" d="m249.75781 114.04492c-27.82489-9e-5 -50.47276 22.6478-50.47265 50.47266v512.42187c-1.1e-4 27.8249 22.6478 50.47276 50.47265 50.47266h305.96289c27.82491 1e-4 50.47276-22.64779 50.47266-50.47266v-512.42187c1e-4 -27.8249-22.64779-50.47276-50.47266-50.47266zm95.25196 64.1836h0.014c0.0678-1.1e-4 0.13535-1.1e-4 0.20312 0h115.04102c38.97145-1.4e-4 70.47279 31.50117 70.47265 70.47265v344.05469c1.6e-4 38.97145-31.50117 70.47278-70.47265 70.47266h-115.05697c-38.9709-1e-3 -70.47085-31.50204-70.47071-70.47266v-344.05469c-2.9e-4 -38.89317 31.37644-70.36101 70.26954-70.47265z" fill="#c6dce1" opacity=".995"/>
 </g>
</svg>
